Patient4_TMGait_0pt4_02_left_34_EMG.mot
version=1
nRows=27
nColumns=33
inDegrees=no
endheader
time	1LAddLong	2LGlutMax	3LGlutMed	4LIliopsoas	5LSemiMemb	6LBicFemLong	7LRecFem	8LVastMed	9LVastLat	10LGasMed	11LTibAnt	12lTibPost	13LPeroneusLong	14LSol	15LExtDigLong	16LFlexDigLong	17RAddLong	18RGlutMax	19RGlutMed	20RIliopsoas	21RSemiMemb	22RBicFemLong	23RRecFem	24RVastMed	25RVastLat	26RGasMed	27RTibAnt	28RTibPost	29RPeroneusLong	30RSol	31RExtDigLong	32RFlexDigLong
46.4	0.001831	0.015106	-0.18066	0.015411	-0.001373	0.013275	-0.063477	0.007019	0.009613	-0.025482	-0.23453	0.000916	0.074463	-0.058136	-0.28717	0.06073	-0.11185	0.13138	0.027313	-0.059052	-0.32623	-0.092926	-0.074158	0.075684	0.006866	0.014801	-0.67276	0.001678	0.22537	-0.070648	-0.005493	0.003052
46.401	0.006409	0.048828	-0.20538	0.011597	-0.012665	0.037079	-0.084991	0.00946	0.00885	0.013885	-0.13825	-0.006561	0.02655	-0.10895	-0.24017	0.045471	-0.11261	0.15106	0.36224	0.047302	0.058899	-0.13702	-0.040283	0.14572	0.045776	0.009766	-0.80704	-0.005798	0.21774	0.000458	0.00061	0.002747
46.402	0.008087	0.063019	-0.19836	0.004272	-0.004578	0.016022	-0.075531	0.003967	0.006714	0.007019	-0.10712	-0.003052	-0.013275	-0.037537	0.2121	0.019684	-0.029144	0.14008	0.094604	0.076294	0.57892	-0.20233	0.034943	0.18097	0.072632	0.005341	-0.59784	0.001373	0.1416	-0.031281	-0.000458	-0.001526
46.403	0.005951	0.032501	-0.20981	-0.007019	-0.005035	0.010223	-0.071259	0.000916	0.001373	-0.020447	0.009308	0.00061	-0.014496	-0.074005	0.29037	0.016479	0.046997	0.14557	0.049133	0.028534	0.70206	-0.11978	0.062714	0.18845	0.13336	0.000305	-0.23193	0	0.036774	-0.08667	-0.000305	-0.006409
46.404	0.014343	0.073242	-0.22369	-0.005493	-0.009766	0.013275	-0.091095	0.006714	0.010071	-0.018463	0.095215	0.005493	-0.015717	-0.15121	1.179	0.013428	0.10757	0.15182	0.01236	-0.010529	0.33997	-0.15457	0.079041	0.13245	0.10483	-0.001068	-0.24384	-0.002136	0.014343	-0.021362	-0.000153	-0.005798
46.405	0.008545	0.080414	-0.19577	-0.00412	0.000458	0.002899	-0.088654	0.005341	0.009613	-0.043793	-0.12512	0.005951	0.10452	-0.15656	-0.38238	0.005493	0.15915	0.1442	-0.057983	-0.033112	0.019989	-0.34927	0.2214	-0.046997	0.068665	0.001221	-0.34988	0.000153	0.049286	0.083771	-0.004578	-0.000916
46.406	0.011749	0.084991	-0.17929	-0.006714	-0.004578	0.005035	-0.081024	0.005188	0.005646	-0.033112	0.065002	0.008392	0.071106	-0.056152	-0.26184	0.007477	0.21912	0.096283	-0.032654	0.00351	-0.36301	-0.34607	0.31235	-0.289	-0.007324	-0.003204	-0.27252	-0.003052	0.079346	0.13901	-0.000458	-0.012207
46.407	0.011597	0.098877	-0.15579	-0.007935	-0.009003	0.015411	-0.10696	0.008087	0.00885	-0.013885	0.31448	0.00473	-0.04837	-0.055084	-0.34454	-0.003967	0.25101	0.15106	0.071106	-0.06546	-0.23773	-0.2121	0.24796	-0.35187	-0.014954	-0.001373	-0.224	0.000458	0.07309	0.12848	0.002136	-0.013733
46.408	0.018311	0.096741	-0.15854	0.008698	-0.00885	0.02533	-0.10605	0.006866	0.001373	-0.009613	0.22156	0.007324	-0.029297	-0.091553	0.042267	-0.001373	0.16754	0.14465	0.10101	-0.043335	-0.32532	0.049438	0.14557	-0.34851	0.020142	0.001373	-0.12421	0.000153	0.082855	0.14816	-0.002441	-0.010071
46.409	0.013428	0.15915	-0.14038	0.004578	-0.005341	0.020294	-0.13031	0.014954	-0.001831	0.000305	0.058289	-0.001678	0.014343	-0.065765	-0.009918	-0.011902	-0.005493	0.11185	0.013885	-0.054016	-0.20264	0.21713	-0.075226	-0.25223	0.12802	-0.001831	-0.11108	0.001068	0.006561	0.14297	0.000305	-0.016632
46.41	0.011139	0.14908	-0.14008	0.010986	-0.002899	0.005035	-0.14114	0.007477	0.007477	-0.049744	-0.11261	0.005798	0.07782	-0.013885	0.036163	-0.012512	-0.20721	0.083771	-0.059052	-0.0177	0.52811	0.29526	-0.41916	-0.18906	0.12039	-0.004272	-0.159	-0.002136	-0.005035	0.077667	0	-0.017548
46.411	0.013123	0.15182	-0.16098	0.02243	-0.001831	0.027618	-0.13016	0.006714	-0.007019	-0.043488	-0.11261	-0.000153	0.077515	0.051727	0.74127	-0.010529	-0.25421	0.10117	-0.12207	0.045776	0.48767	0.22644	-0.26718	-0.25757	-0.11932	-0.000916	-0.028076	-0.001678	0.055695	0.060577	-0.00061	-0.002594
46.412	0.02243	0.15823	-0.14328	0.018616	-0.005646	0.014801	-0.1535	0.01236	-0.016785	-0.043182	-0.056763	0.001526	0.069275	0.05249	-0.6929	-0.000305	-0.17319	0.050354	-0.06012	0.053253	0.38559	0.085144	-0.19943	-0.32028	-0.12497	-0.002136	0.12329	0.001526	0.032043	0.02655	-0.002136	-0.005951
46.413	0.011749	0.18158	-0.049896	0.030365	-0.00351	0.004425	-0.14633	-0.000153	-0.019836	-0.018158	-0.035553	0.00473	0.00061	0.041656	-0.76614	-0.006409	-0.10788	0.056915	-0.093842	0.008545	0.42206	-0.11093	-0.22247	-0.31769	0.27145	-0.003052	0.075684	0	0.001068	0.006561	-0.008545	-0.006866
46.414	0.022125	0.16007	-0.020599	0.008392	-0.006256	0.006409	-0.15884	0.007477	-0.024414	0.023041	-0.077057	-0.001373	-0.080261	-0.033875	-0.77087	-0.015259	-0.081177	0.061493	-0.11063	-0.045624	0.2565	-0.25513	-0.18829	-0.004578	0.45532	-0.006561	0.056458	-0.004425	-0.002594	0.011749	-0.000458	-0.007019
46.415	0.014038	0.15091	-0.022736	0.005646	-0.006256	0	-0.16586	0.007324	-0.014648	0.018005	-0.14542	0.001984	-0.043335	-0.13458	-0.66803	0.000458	-0.035095	0.034943	0.003204	-0.10193	0.34958	-0.37933	-0.15076	0.30441	0.54047	-0.014191	0.074158	-0.000916	0.054016	-0.011139	-0.001373	-0.006409
46.416	0.013275	0.1741	0.015259	0.012665	-0.004883	0.005188	-0.16403	-0.000153	-0.005188	-0.003357	-0.11978	0.003357	-0.016327	-0.093536	-0.25513	-0.002136	0.005035	0.10849	0.0177	-0.15305	0.30914	-0.3418	-0.10895	0.21973	0.23605	-0.007019	0.097198	-0.002747	0.11917	-0.012512	-0.002594	-0.016022
46.417	0.015106	0.19684	0.059357	0.01358	-0.012665	0.010223	-0.17395	0.006104	0.025635	-0.00946	-0.045471	0.004578	-0.023651	-0.065765	0.040741	-0.028839	0.01297	0.10208	-0.027313	-0.15442	0.17899	-0.37857	-0.047302	0.38574	-0.093079	-0.006104	0.06134	0	0.050812	-0.028229	-0.001526	-0.009003
46.418	0.00885	0.19791	0.081329	-0.00351	-0.003357	0.007019	-0.16602	0.005646	0.007324	0.009003	0.089874	0.007629	-0.039673	0.02594	0.28305	-1.3884	0.007477	0.061493	-0.048676	-0.042267	0.13779	-0.12848	-0.038147	0.55527	-0.20554	0.00412	0.082092	-0.000763	-0.29739	-0.038757	-0.007935	-0.00885
46.419	0.016785	0.22354	0.091705	-0.001526	-0.008545	0.020447	-0.16754	-0.001831	0.006409	0.058899	0.12238	0.00885	-0.027313	0.044708	0.29404	0.23987	0.04425	0.056	-0.10468	0.11795	0.1149	0.084381	-0.049438	1.0487	-0.1944	-0.006561	0.082092	-0.003052	-0.25055	-0.027771	0.000305	-0.015717
46.42	0.011444	0.22018	0.09613	0.005646	-0.002899	0.031586	-0.16068	0.001373	0.007629	0.059967	0.020905	0.00885	-0.011749	-0.007935	0.12329	0.79422	0.075836	-0.055237	-0.085144	0.18173	-0.091095	0.18951	-0.065155	0.9404	-0.15869	-0.004578	-0.035553	-0.002289	-0.071869	-0.020752	0.00061	-0.017395
46.421	0.009613	0.23331	0.11169	0.010529	-0.004272	0.015717	-0.18829	-0.005341	-0.000763	-0.001221	0.020142	0.005798	0.036774	0.035248	0.069122	-0.29007	-0.000305	-0.1001	-0.059967	0.14847	-0.068359	0.47821	-0.092468	0.89737	0.045166	-0.00885	-0.055237	-0.001831	0.001373	0.011902	0.000916	-0.021973
46.422	0.022278	0.24109	0.14145	-0.000458	-0.011749	-0.016479	-0.18692	0.007019	0.000763	-0.008392	0.072784	0.013275	0.023499	0.059814	-0.004883	-0.083771	-0.065765	-0.08316	-0.043793	0.1062	-0.058441	0.38559	0.09903	0.63705	0.085297	-0.007935	0.047455	-0.001678	-0.017548	-0.014038	0.002899	-0.016632
46.423	0.025482	0.242	0.14465	0.003357	-0.008698	-0.012512	-0.21042	0.000153	0.005341	0.00351	0.083618	0.005035	-0.026855	0.10727	-0.034485	0.66238	-0.040436	-0.096588	-0.044861	0.007172	0.22797	0.17395	0.27939	-0.10315	0.1796	-0.008698	0.2713	-0.001221	-0.062866	-0.013428	-0.001068	-0.022583
46.424	0.026855	0.23193	0.15045	0.00473	0.001984	-0.018311	-0.19409	-0.00351	0.004425	-0.020447	0.036469	0.000916	0.002594	0.077667	-0.06073	0.066528	0.000916	-0.18204	-0.039368	-0.006104	0.083313	0.16632	0.22278	-0.58502	0.78583	-0.013428	0.39276	-0.002441	-0.067596	-0.055695	-0.000153	-0.015869
46.425	0.019836	0.24612	0.17593	0.008087	0.005188	-0.080566	-0.19928	-0.00473	0.009918	-0.046234	-0.043793	0.007172	0.085144	-0.010071	-0.014648	-0.29755	-0.007935	-0.18417	-0.1712	-0.052338	-0.19257	0.17029	0.076904	-0.67505	0.58334	-0.012207	0.2803	-0.005188	-0.006409	-0.047607	-0.000458	-0.010529
46.426	0.025635	0.23895	0.2095	0.011902	0.00473	-0.099945	-0.19623	-0.003357	0.013885	-0.001526	-0.019531	0.010529	0.069275	-0.016022	0.077515	-0.010681	-0.013428	-0.14679	-0.25909	-0.00473	-0.18646	0.12436	-0.12329	-0.6395	0.10788	-0.005798	0.069885	-0.000305	-0.013275	-0.057831	-0.000305	-0.020447
